<svg preserveAspectRatio="none" overflow="visible" style="display: block;" width="26.3544" height="57.5002" viewBox="0 0 26.3544 57.5002" fill="none" xmlns="http://www.w3.org/2000/svg">
<g id="Group 51">
<path id="Subtract" d="M19.5837 0.000153531C21.3892 1.94453 25.1669 6.41675 25.8337 8.75015C26.6671 11.6668 26.6671 15.0008 24.5837 17.0841C22.917 18.7508 19.4445 21.6672 17.9167 22.9171C18.4723 31.6669 19.5837 49.8326 19.5837 52.5002C19.5837 55.1668 15.4171 56.9446 13.3337 57.5002H13.0212C10.9379 56.9446 6.77124 55.1668 6.77124 52.5002C6.77131 49.8326 7.88269 31.6669 8.43823 22.9171C6.91053 21.6672 3.43801 18.7508 1.77124 17.0841C-0.31209 15.0008 -0.31209 11.6668 0.521242 8.75015C1.18812 6.41675 4.96575 1.94452 6.77124 0.000153531C6.63235 1.9446 6.43791 6.50048 6.77124 9.16715C7.18796 12.5004 10.9379 13.3341 13.0212 13.3341H13.3337C15.4171 13.3341 19.167 12.5004 19.5837 9.16715C19.9171 6.50048 19.7226 1.9446 19.5837 0.000153531ZM13.0203 49.1671C12.0998 49.1673 11.3533 49.9136 11.3533 50.8341C11.3533 51.7546 12.0998 52.501 13.0203 52.5011C13.9409 52.5011 14.6872 51.7547 14.6873 50.8341C14.6873 49.9135 13.9409 49.1671 13.0203 49.1671Z" fill="#1A5FD0"/>
<g id="Mask group">
<mask id="mask0_0_31" style="mask-type:alpha" maskUnits="userSpaceOnUse" x="0" y="0" width="27" height="58">
<path id="Subtract_2" d="M19.5831 0C21.3886 1.94437 25.1663 6.4166 25.8331 8.75C26.6665 11.6667 26.6665 15.0007 24.5831 17.084C22.9164 18.7507 19.4438 21.6671 17.9161 22.917C18.4717 31.6667 19.5831 49.8324 19.5831 52.5C19.5831 55.1667 15.4165 56.9444 13.3331 57.5H13.0206C10.9373 56.9444 6.77063 55.1667 6.77063 52.5C6.7707 49.8324 7.88208 31.6667 8.43762 22.917C6.90992 21.6671 3.43739 18.7507 1.77063 17.084C-0.312705 15.0007 -0.312705 11.6667 0.520627 8.75C1.1875 6.41659 4.96514 1.94437 6.77063 0C6.63174 1.94444 6.43729 6.50033 6.77063 9.16699C7.18735 12.5003 10.9373 13.334 13.0206 13.334H13.3331C15.4164 13.334 19.1664 12.5003 19.5831 9.16699C19.9165 6.50033 19.722 1.94444 19.5831 0ZM13.0206 49.168C12.1 49.168 11.3536 49.9143 11.3536 50.835C11.3538 51.7554 12.1001 52.5019 13.0206 52.502C13.9411 52.502 14.6874 51.7554 14.6876 50.835C14.6876 49.9143 13.9412 49.168 13.0206 49.168Z" fill="#1A5FD0"/>
</mask>
<g mask="url(#mask0_0_31)">
<rect id="Rectangle 83" x="4.16651" y="38.3341" width="18.3333" height="19.1667" fill="#0348AD"/>
</g>
</g>
</g>
</svg>
